<?xml version="1.0" encoding="UTF-8"?>
<svg width="28px" height="29px" viewBox="0 0 28 29" version="1.1" xmlns="http://www.w3.org/2000/svg" xmlns:xlink="http://www.w3.org/1999/xlink">
    <title>icon/32x32/facebook/primary</title>
    <g id="Homepage-01-07" stroke="none" stroke-width="1" fill="none" fill-rule="evenodd">
        <g id="Wood-+-Panel-B3" transform="translate(-1031.000000, -5510.000000)">
            <g id="Group-23" transform="translate(0.000000, 5434.000000)">
                <g id="Group-18" transform="translate(1031.000000, 57.000000)">
                    <g id="icon/32x32/facebook_primary" transform="translate(0.000000, 19.000000)">
                        <rect id="Rectangle-10" x="0" y="0.439393939" width="28" height="28.1212121"></rect>
                        <g id="facebook" transform="translate(7.875000, 3.075758)" fill="#FFFFFF">
                            <path d="M12.0929487,2.13162821e-14 L8.79487179,2.13162821e-14 C5.75907581,2.13162821e-14 3.29807692,2.47165257 3.29807692,5.52059052 L3.29807692,8.83294483 L2.05613304e-12,8.83294483 L2.05613304e-12,13.2494172 L3.29807692,13.2494172 L3.29807692,22.0823621 L7.69551282,22.0823621 L7.69551282,13.2494172 L10.9935897,13.2494172 L12.0929487,8.83294483 L7.69551282,8.83294483 L7.69551282,5.52059052 C7.69551282,4.91080293 8.1877126,4.41647242 8.79487179,4.41647242 L12.0929487,4.41647242 L12.0929487,2.13162821e-14 Z" id="Path"></path>
                        </g>
                    </g>
                </g>
            </g>
        </g>
    </g>
</svg>