<?xml version="1.0" encoding="UTF-8"?>
<svg width="24px" height="19px" viewBox="0 0 24 19" version="1.1" xmlns="http://www.w3.org/2000/svg" xmlns:xlink="http://www.w3.org/1999/xlink">
    <title>Twitter_Logo_WhiteOnBlue</title>
    <g id="Homepage-01-07" stroke="none" stroke-width="1" fill="none" fill-rule="evenodd">
        <g id="Wood-+-Panel-B3" transform="translate(-1093.000000, -5567.000000)" fill="#FFFFFF">
            <g id="Group-23" transform="translate(0.000000, 5434.000000)">
                <g id="Group-18" transform="translate(1031.000000, 57.000000)">
                    <g id="Group-5" transform="translate(0.000000, 19.000000)">
                        <g id="Twitter_Logo_WhiteOnBlue" transform="translate(62.000000, 57.000000)">
                            <path d="M7.547808,19 C16.604832,19 21.557664,11.6908474 21.557664,5.35293191 C21.557664,5.14523718 21.553344,4.93847759 21.543552,4.73284017 C22.504896,4.05589188 23.340672,3.21117936 24,2.24938724 C23.117664,2.63111164 22.168224,2.88846233 21.172224,3.00441977 C22.188864,2.41079251 22.969344,1.47116322 23.337408,0.351238815 C22.385856,0.900633927 21.332448,1.30021951 20.21088,1.51539537 C19.312416,0.583153688 18.032736,0 16.616736,0 C13.897248,0 11.692032,2.14811151 11.692032,4.79614919 C11.692032,5.1726368 11.735328,5.53855732 11.819712,5.88979614 C7.72752,5.68939551 4.09872,3.78067999 1.6704,0.878471094 C1.247136,1.58712065 1.003584,2.41079251 1.003584,3.28917009 C1.003584,4.95334633 1.872864,6.42235872 3.194688,7.28175295 C2.387136,7.2575328 1.628256,7.04132829 0.964608,6.68167321 C0.963456,6.70168522 0.963456,6.72179075 0.963456,6.74283141 C0.963456,9.06609475 2.661024,11.0053894 4.913856,11.445186 C4.500384,11.5547845 4.06512,11.6138854 3.61584,11.6138854 C3.298656,11.6138854 2.990112,11.5833063 2.690208,11.5273849 C3.317088,13.4330144 5.134752,14.8197344 7.290144,14.8588233 C5.604576,16.1452962 3.481632,16.9119245 1.174656,16.9119245 C0.777312,16.9119245 0.38544,16.8898552 0,16.8455295 C2.179296,18.2058786 4.766688,19 7.547808,19" id="Fill-4"></path>
                        </g>
                    </g>
                </g>
            </g>
        </g>
    </g>
</svg>